<svg width="24" height="24" viewBox="0 0 24 24" fill="none" xmlns="http://www.w3.org/2000/svg">
<path d="M19.7276 12.8181C19.6271 12.4162 19.2199 12.1719 18.8181 12.2724L14.8181 13.2724C14.4163 13.3728 14.1719 13.78 14.2724 14.1819C14.3729 14.5837 14.7801 14.828 15.1819 14.7276L19.1819 13.7276C19.5837 13.6271 19.8281 13.2199 19.7276 12.8181Z" fill="black"/>
<path d="M19.75 5.49997C19.75 5.08576 19.4142 4.74997 19 4.74997C18.5858 4.74997 18.25 5.08576 18.25 5.49997V8.93856L17.5007 8.58263L17.4919 8.57819C17.4429 8.55313 17.2363 8.44754 17 8.44754C16.7637 8.44754 16.5571 8.55313 16.5081 8.57819L16.4993 8.58263L15.75 8.93856V6.95C15.75 6.53578 15.4142 6.2 15 6.2C14.5858 6.2 14.25 6.53578 14.25 6.95L14.25 9.53718C14.2498 9.6484 14.2496 9.80696 14.2709 9.94308C14.2969 10.1095 14.3824 10.4308 14.7151 10.6261C15.0355 10.8142 15.3488 10.7443 15.4978 10.698C15.6276 10.6577 15.77 10.5899 15.8762 10.5393L17 10.0054L18.1238 10.5393C18.23 10.5898 18.3724 10.6577 18.5022 10.698C18.6512 10.7443 18.9645 10.8142 19.2849 10.6261C19.6176 10.4308 19.7031 10.1095 19.7291 9.94308C19.7504 9.80696 19.7502 9.6484 19.75 9.53718L19.75 5.49997Z" fill="black"/>
<path d="M4.27239 8.81807C4.37285 8.41623 4.78006 8.17191 5.1819 8.27237L9.1819 9.27237C9.58375 9.37283 9.82807 9.78003 9.72761 10.1819C9.62715 10.5837 9.21994 10.828 8.8181 10.7276L4.8181 9.72758C4.41625 9.62712 4.17193 9.21992 4.27239 8.81807Z" fill="black"/>
<path d="M5.1819 12.2724C4.78006 12.1719 4.37285 12.4162 4.27239 12.8181C4.17193 13.2199 4.41625 13.6271 4.8181 13.7276L8.8181 14.7276C9.21994 14.828 9.62715 14.5837 9.72761 14.1819C9.82807 13.78 9.58375 13.3728 9.1819 13.2724L5.1819 12.2724Z" fill="black"/>
<path fill-rule="evenodd" clip-rule="evenodd" d="M22.75 4.93317C22.75 3.46986 21.5847 2.21492 20.0559 2.26818C18.9175 2.30783 17.4296 2.42624 16.2849 2.76892C15.2899 3.06681 14.1706 3.64866 13.2982 4.1536C12.4801 4.62706 11.4617 4.65068 10.6328 4.21242C9.63736 3.68603 8.32766 3.06209 7.19136 2.76224C6.23055 2.5087 5.01517 2.38692 4.02841 2.32628C2.47017 2.23051 1.25 3.49862 1.25 4.99778V16.1436C1.25 17.6798 2.49378 18.8791 3.96804 18.9713C4.9268 19.0313 6.00566 19.1466 6.80864 19.3585C7.8012 19.6204 9.0286 20.2028 10.0196 20.7311C11.2529 21.3885 12.7471 21.3885 13.9804 20.7311C14.9714 20.2028 16.1988 19.6204 17.1914 19.3585C17.9943 19.1466 19.0732 19.0313 20.032 18.9713C21.5062 18.8791 22.75 17.6798 22.75 16.1436V4.93317ZM20.1081 3.76727C20.7229 3.74585 21.25 4.25158 21.25 4.93317V16.1436C21.25 16.8293 20.6817 17.4278 19.9383 17.4743C18.9582 17.5356 17.7591 17.6574 16.8086 17.9082C15.6383 18.217 14.2827 18.8701 13.2748 19.4074C13.1065 19.4971 12.9305 19.5677 12.75 19.6193V5.94201C13.2023 5.85147 13.6421 5.68765 14.0495 5.45185C14.9 4.95966 15.8949 4.45146 16.7151 4.20591C17.6643 3.92176 18.9892 3.80624 20.1081 3.76727ZM11.25 5.97495C10.795 5.9042 10.349 5.75912 9.93167 5.53845C8.95486 5.02194 7.77076 4.46648 6.80864 4.21259C5.99643 3.99827 4.90238 3.88282 3.93639 3.82345C3.30243 3.78449 2.75 4.30059 2.75 4.99778V16.1436C2.75 16.8293 3.31831 17.4278 4.06168 17.4743C5.04176 17.5356 6.24092 17.6574 7.19136 17.9082C8.3617 18.217 9.71727 18.8701 10.7252 19.4074C10.8935 19.4971 11.0695 19.5677 11.25 19.6193V5.97495Z" fill="black"/>
</svg>
