<svg width="514" height="654" viewBox="0 0 514 654" fill="none" xmlns="http://www.w3.org/2000/svg">
<path d="M147.77 634.556C147.66 633.476 147.19 632.646 146.37 632.046C145.55 631.446 144.48 631.146 143.16 631.146C142.24 631.146 141.44 631.286 140.78 631.576C140.12 631.866 139.61 632.256 139.26 632.746C138.91 633.236 138.73 633.796 138.72 634.436C138.72 634.956 138.84 635.416 139.07 635.806C139.3 636.196 139.63 636.516 140.03 636.786C140.44 637.056 140.89 637.276 141.38 637.456C141.87 637.636 142.37 637.786 142.87 637.916L145.16 638.506C146.08 638.726 146.97 639.026 147.83 639.406C148.69 639.786 149.46 640.256 150.14 640.836C150.82 641.416 151.36 642.106 151.76 642.916C152.16 643.726 152.36 644.676 152.36 645.776C152.36 647.256 151.99 648.556 151.26 649.666C150.53 650.786 149.47 651.656 148.09 652.286C146.71 652.916 145.04 653.226 143.08 653.226C141.12 653.226 139.52 652.926 138.13 652.316C136.74 651.706 135.64 650.826 134.86 649.656C134.08 648.486 133.65 647.076 133.59 645.396H137.95C138.01 646.276 138.28 647.006 138.74 647.586C139.2 648.166 139.81 648.606 140.55 648.886C141.29 649.166 142.13 649.316 143.05 649.316C143.97 649.316 144.86 649.166 145.59 648.866C146.32 648.566 146.89 648.146 147.31 647.606C147.72 647.066 147.94 646.436 147.94 645.716C147.94 645.056 147.74 644.516 147.38 644.086C147.01 643.656 146.5 643.296 145.84 643.006C145.18 642.716 144.42 642.456 143.54 642.226L140.76 641.486C138.74 640.956 137.15 640.146 135.98 639.056C134.81 637.966 134.23 636.526 134.23 634.716C134.23 633.226 134.62 631.926 135.41 630.816C136.19 629.696 137.26 628.836 138.62 628.216C139.97 627.596 141.51 627.286 143.22 627.286C144.93 627.286 146.48 627.596 147.79 628.216C149.1 628.836 150.13 629.696 150.88 630.786C151.63 631.886 152.02 633.136 152.04 634.556H147.77Z" fill="url(#paint0_linear_2_60)"/>
<path d="M168.44 652.826V627.626H184.36V631.456H172.87V638.296H183.53V642.126H172.87V649.006H184.45V652.836H168.43L168.44 652.826Z" fill="url(#paint1_linear_2_60)"/>
<path d="M201 652.826V627.626H210.18C212.06 627.626 213.64 627.966 214.92 628.636C216.2 629.306 217.17 630.246 217.82 631.456C218.48 632.666 218.81 634.076 218.81 635.686C218.81 637.296 218.48 638.706 217.81 639.886C217.14 641.066 216.17 641.986 214.88 642.626C213.59 643.266 212 643.596 210.12 643.596H203.58V639.806H209.52C210.62 639.806 211.52 639.646 212.22 639.336C212.92 639.016 213.44 638.556 213.78 637.946C214.12 637.336 214.29 636.586 214.29 635.686C214.29 634.786 214.12 634.026 213.78 633.396C213.44 632.766 212.92 632.276 212.21 631.946C211.51 631.616 210.6 631.446 209.5 631.446H205.44V652.836H201.01L201 652.826ZM213.65 641.406L219.71 652.826H214.76L208.81 641.406H213.65Z" fill="url(#paint2_linear_2_60)"/>
<path d="M237.65 627.626L244.02 647.466H244.27L250.63 627.626H255.51L246.88 652.826H241.41L232.79 627.626H237.65Z" fill="url(#paint3_linear_2_60)"/>
<path d="M275.28 627.626V652.826H270.85V627.626H275.28Z" fill="url(#paint4_linear_2_60)"/>
<path d="M313.17 636.126H308.7C308.57 635.376 308.34 634.696 307.99 634.116C307.65 633.526 307.22 633.036 306.71 632.616C306.2 632.206 305.62 631.896 304.97 631.686C304.32 631.476 303.62 631.376 302.87 631.376C301.54 631.376 300.36 631.716 299.33 632.406C298.3 633.086 297.5 634.096 296.92 635.406C296.34 636.726 296.05 638.326 296.05 640.226C296.05 642.126 296.34 643.776 296.93 645.096C297.52 646.416 298.32 647.406 299.34 648.076C300.36 648.746 301.54 649.076 302.86 649.076C303.59 649.076 304.28 648.976 304.92 648.776C305.56 648.576 306.14 648.276 306.65 647.886C307.16 647.496 307.6 647.006 307.95 646.436C308.3 645.866 308.55 645.206 308.69 644.466L313.16 644.496C312.99 645.696 312.63 646.816 312.08 647.866C311.53 648.916 310.8 649.836 309.91 650.646C309.02 651.446 307.97 652.066 306.78 652.516C305.59 652.966 304.26 653.186 302.8 653.186C300.65 653.186 298.73 652.676 297.04 651.646C295.35 650.616 294.02 649.136 293.05 647.206C292.08 645.266 291.59 642.946 291.59 640.236C291.59 637.526 292.08 635.196 293.06 633.266C294.04 631.336 295.38 629.856 297.06 628.826C298.75 627.796 300.66 627.286 302.8 627.286C304.16 627.286 305.43 627.486 306.6 627.876C307.77 628.266 308.81 628.846 309.73 629.606C310.65 630.366 311.4 631.296 312 632.386C312.59 633.486 312.98 634.726 313.17 636.136V636.126Z" fill="url(#paint5_linear_2_60)"/>
<path d="M329.36 652.826V627.626H345.28V631.456H333.79V638.296H344.45V642.126H333.79V649.006H345.37V652.836H329.35L329.36 652.826Z" fill="url(#paint6_linear_2_60)"/>
<path d="M375.23 634.556C375.12 633.476 374.65 632.646 373.83 632.046C373 631.446 371.94 631.146 370.62 631.146C369.7 631.146 368.9 631.286 368.24 631.576C367.58 631.866 367.07 632.256 366.72 632.746C366.37 633.236 366.19 633.796 366.18 634.436C366.18 634.956 366.3 635.416 366.53 635.806C366.76 636.196 367.09 636.516 367.49 636.786C367.9 637.056 368.35 637.276 368.84 637.456C369.33 637.636 369.83 637.786 370.33 637.916L372.62 638.506C373.54 638.726 374.43 639.026 375.29 639.406C376.15 639.786 376.92 640.256 377.6 640.836C378.28 641.406 378.82 642.106 379.22 642.916C379.62 643.726 379.82 644.676 379.82 645.776C379.82 647.256 379.45 648.556 378.72 649.666C377.99 650.786 376.93 651.656 375.55 652.286C374.17 652.916 372.5 653.226 370.54 653.226C368.58 653.226 366.98 652.926 365.59 652.316C364.2 651.706 363.1 650.826 362.31 649.656C361.52 648.486 361.1 647.076 361.04 645.396H365.4C365.46 646.276 365.73 647.006 366.19 647.586C366.65 648.166 367.26 648.606 368 648.886C368.74 649.166 369.58 649.316 370.5 649.316C371.42 649.316 372.31 649.166 373.04 648.866C373.77 648.566 374.34 648.146 374.75 647.606C375.17 647.066 375.38 646.436 375.38 645.716C375.38 645.056 375.18 644.516 374.82 644.086C374.46 643.656 373.94 643.296 373.28 643.006C372.62 642.716 371.86 642.456 370.98 642.226L368.19 641.486C366.17 640.956 364.58 640.146 363.42 639.056C362.25 637.966 361.67 636.526 361.67 634.716C361.67 633.226 362.06 631.926 362.85 630.816C363.64 629.696 364.7 628.836 366.06 628.216C367.42 627.596 368.95 627.286 370.66 627.286C372.37 627.286 373.92 627.596 375.23 628.216C376.54 628.836 377.57 629.696 378.32 630.786C379.07 631.886 379.46 633.136 379.48 634.556H375.21H375.23Z" fill="url(#paint7_linear_2_60)"/>
<path d="M476.35 167.106L476.14 166.446C475.9 165.626 475.64 164.816 475.39 163.996L475.25 163.556C474.9 162.456 474.55 161.356 474.19 160.266L474.02 159.736C473.7 158.776 473.38 157.816 473.05 156.856L472.7 155.846H236.05C208.36 155.846 185.83 179.026 185.83 207.516V447.346C98.12 415.996 39.48 331.426 39.69 236.216C39.96 140.026 97.23 57.7659 185.76 26.0359L184.92 154.716L187.53 151.986C190.46 148.916 194.51 145.916 198.09 143.376L198.73 142.926V21.8259C212.4 17.8559 226.44 15.2159 240.52 13.9859V132.566C240.52 135.806 242.2 138.846 244.92 140.496L250.49 143.886C251.09 144.236 251.84 144.236 252.44 143.886C253.04 143.536 253.41 142.886 253.41 142.186V92.5359H439.05L437.26 90.1359C397.57 37.0659 336.46 4.36587 269.61 0.405866C203.28 -3.54413 139.3 21.4859 94.09 69.0159C60.65 103.266 38.66 145.916 30.51 192.366C22.87 235.846 27.36 281.056 43.5 323.116C59.14 363.866 84.83 399.136 117.8 425.126C152.73 452.666 195.13 468.886 240.52 472.096L242.32 472.246L253.41 472.766V472.666C254.45 472.676 255.49 472.696 256.53 472.696C327.92 473.156 394.2 439.476 438.3 380.226C484.18 318.586 498.41 238.916 476.35 167.096V167.106ZM253.41 13.2459C312.91 11.6659 368.58 35.0759 410.73 79.3559H253.41V13.2459ZM428.67 371.006C387.27 427.336 325.32 459.526 258.45 459.526C257.82 459.526 257.17 459.526 256.53 459.516H256.51C255.48 459.516 254.44 459.516 253.41 459.496V267.156C253.41 256.976 261.44 248.696 271.3 248.696H365.43V235.496H271.3C254.33 235.496 240.52 249.696 240.52 267.156V458.936C226.36 457.886 212.31 455.386 198.73 451.506V207.516C198.73 186.306 215.47 169.046 236.05 169.046H463.44C484.92 236.706 471.95 312.116 428.67 371.006Z" fill="url(#paint8_linear_2_60)"/>
<path d="M253.42 186.426V221.686L252.53 222.076C249.13 223.586 245.9 225.506 242.93 227.796L240.52 229.656V186.426H253.42Z" fill="url(#paint9_linear_2_60)"/>
<path d="M94.87 546.406H104.9V578.116C104.9 581.676 104.08 584.786 102.43 587.466C100.79 590.136 98.49 592.216 95.54 593.696C92.59 595.186 89.16 595.926 85.24 595.926C81.32 595.926 77.86 595.186 74.91 593.696C71.96 592.206 69.67 590.136 68.03 587.466C66.39 584.796 65.58 581.676 65.58 578.116V546.406H75.61V577.236C75.61 579.096 76.01 580.746 76.8 582.196C77.59 583.646 78.72 584.776 80.17 585.606C81.62 586.436 83.31 586.846 85.24 586.846C87.17 586.846 88.88 586.436 90.32 585.606C91.76 584.776 92.88 583.646 93.68 582.196C94.47 580.746 94.87 579.096 94.87 577.236V546.406Z" fill="url(#paint10_linear_2_60)"/>
<path d="M140.59 595.226V546.406H150.62V586.716H170.95V595.226H140.59Z" fill="url(#paint11_linear_2_60)"/>
<path d="M235.63 555.536L227.84 560.546C227.25 559.526 227.36 560.016 226.79 558.956C226.22 557.896 225.86 557.926 224.97 557.176C224.08 556.426 223.05 555.856 221.88 555.456C220.71 555.056 219.45 554.856 218.1 554.856C215.65 554.856 213.51 555.476 211.69 556.726C209.87 557.976 208.46 559.786 207.45 562.166C206.45 564.546 205.95 567.426 205.95 570.806C205.95 574.186 206.46 577.216 207.47 579.576C208.48 581.936 209.9 583.736 211.72 584.936C213.54 586.146 215.65 586.746 218.04 586.746C219.38 586.746 220.63 586.566 221.78 586.196C222.93 585.826 223.95 585.296 224.85 584.586C225.75 583.876 226.49 583.016 227.08 581.996C227.67 580.976 227.22 581.776 227.91 580.576L235.47 586.306C235.32 586.926 234.92 587.486 234.92 587.486C233.76 589.326 234.06 588.966 232.31 590.596C230.56 592.226 228.47 593.516 226.06 594.456C223.65 595.396 220.92 595.876 217.88 595.876C213.65 595.876 209.87 594.886 206.55 592.916C203.22 590.946 200.6 588.096 198.68 584.356C196.76 580.626 195.8 576.096 195.8 570.796C195.8 565.496 196.77 560.946 198.72 557.206C200.67 553.466 203.3 550.626 206.64 548.656C209.98 546.686 213.72 545.716 217.89 545.716C220.64 545.716 223.19 546.116 225.54 546.906C227.89 547.696 229.97 548.866 231.8 550.376C233.04 551.396 233.38 551.566 234.12 552.756C234.61 553.546 234.44 553.156 235.66 555.516L235.63 555.536Z" fill="url(#paint12_linear_2_60)"/>
<path d="M268.46 595.226V546.406H287.17C290.75 546.406 293.81 547.066 296.35 548.376C298.89 549.686 300.83 551.536 302.16 553.926C303.49 556.316 304.16 559.126 304.16 562.356C304.16 565.586 303.48 568.386 302.12 570.716C300.76 573.046 298.8 574.826 296.23 576.066C293.66 577.306 290.55 577.926 286.91 577.926H274.38V569.626H285.29C287.2 569.626 288.79 569.356 290.06 568.816C291.33 568.276 292.27 567.466 292.9 566.386C293.52 565.306 293.84 563.966 293.84 562.356C293.84 560.746 293.53 559.366 292.9 558.256C292.27 557.146 291.32 556.296 290.05 555.716C288.78 555.136 287.17 554.846 285.25 554.846H278.49V595.226H268.46ZM294.07 573.006L305.86 595.226H294.79L283.26 573.006H294.07Z" fill="url(#paint13_linear_2_60)"/>
<path d="M371.19 546.406H381.22V578.116C381.22 581.676 380.4 584.786 378.75 587.466C377.11 590.136 374.81 592.216 371.86 593.696C368.91 595.186 365.48 595.926 361.56 595.926C357.64 595.926 354.18 595.186 351.23 593.696C348.28 592.206 345.99 590.136 344.35 587.466C342.71 584.796 341.89 581.676 341.89 578.116V546.406H351.92V577.236C351.92 579.096 352.32 580.746 353.11 582.196C353.9 583.646 355.03 584.776 356.48 585.606C357.93 586.436 359.62 586.846 361.55 586.846C363.48 586.846 365.19 586.436 366.63 585.606C368.07 584.776 369.19 583.646 369.99 582.196C370.78 580.746 371.18 579.096 371.18 577.236V546.406H371.19Z" fill="url(#paint14_linear_2_60)"/>
<path d="M491.13 567.866V563.126L502.67 544.406H506.64V550.966H504.29L497.01 562.826V563.046H513.41V567.866H491.12H491.13ZM504.4 572.876V566.426L504.51 564.326V544.406H509.99V572.866H504.4V572.876Z" fill="url(#paint15_linear_2_60)"/>
<path d="M422.19 595.076V558.976L437.33 577.026L451.81 558.976V594.316H461.05V544.696H451.05L437.24 560.596L422.95 544.696H412.48V595.076H422.19Z" fill="url(#paint16_linear_2_60)"/>
<path d="M10.16 596.946V576.496H30.48V566.726H9.27V555.416H35.05V546.406H0V596.946H10.16Z" fill="url(#paint17_linear_2_60)"/>
<defs>
<linearGradient id="paint0_linear_2_60" x1="133.85" y1="627.56" x2="151.515" y2="653.739" gradientUnits="userSpaceOnUse">
<stop offset="0.04" stop-color="#09162B"/>
<stop offset="0.97" stop-color="#00091A"/>
</linearGradient>
<linearGradient id="paint1_linear_2_60" x1="168.652" y1="627.892" x2="186.54" y2="651.174" gradientUnits="userSpaceOnUse">
<stop offset="0.04" stop-color="#09162B"/>
<stop offset="0.97" stop-color="#00091A"/>
</linearGradient>
<linearGradient id="paint2_linear_2_60" x1="201.259" y1="627.892" x2="218.26" y2="653.734" gradientUnits="userSpaceOnUse">
<stop offset="0.04" stop-color="#09162B"/>
<stop offset="0.97" stop-color="#00091A"/>
</linearGradient>
<linearGradient id="paint3_linear_2_60" x1="233.105" y1="627.892" x2="248.603" y2="656.511" gradientUnits="userSpaceOnUse">
<stop offset="0.04" stop-color="#09162B"/>
<stop offset="0.97" stop-color="#00091A"/>
</linearGradient>
<linearGradient id="paint4_linear_2_60" x1="270.912" y1="627.892" x2="282.708" y2="632.14" gradientUnits="userSpaceOnUse">
<stop offset="0.04" stop-color="#09162B"/>
<stop offset="0.97" stop-color="#00091A"/>
</linearGradient>
<linearGradient id="paint5_linear_2_60" x1="291.889" y1="627.559" x2="308.482" y2="655.876" gradientUnits="userSpaceOnUse">
<stop offset="0.04" stop-color="#09162B"/>
<stop offset="0.97" stop-color="#00091A"/>
</linearGradient>
<linearGradient id="paint6_linear_2_60" x1="329.572" y1="627.892" x2="347.46" y2="651.174" gradientUnits="userSpaceOnUse">
<stop offset="0.04" stop-color="#09162B"/>
<stop offset="0.97" stop-color="#00091A"/>
</linearGradient>
<linearGradient id="paint7_linear_2_60" x1="361.3" y1="627.56" x2="378.961" y2="653.748" gradientUnits="userSpaceOnUse">
<stop offset="0.04" stop-color="#09162B"/>
<stop offset="0.97" stop-color="#00091A"/>
</linearGradient>
<linearGradient id="paint8_linear_2_60" x1="256.71" y1="472.776" x2="256.71" y2="0.00586129" gradientUnits="userSpaceOnUse">
<stop stop-color="#65625E"/>
<stop offset="0.13" stop-color="#787773"/>
<stop offset="0.38" stop-color="#969A94"/>
<stop offset="0.61" stop-color="#ADB2AD"/>
<stop offset="0.83" stop-color="#BAC1BB"/>
<stop offset="1" stop-color="#BFC7C1"/>
</linearGradient>
<linearGradient id="paint9_linear_2_60" x1="246.97" y1="229.656" x2="246.97" y2="186.426" gradientUnits="userSpaceOnUse">
<stop stop-color="#65625E"/>
<stop offset="0.13" stop-color="#787773"/>
<stop offset="0.38" stop-color="#969A94"/>
<stop offset="0.61" stop-color="#ADB2AD"/>
<stop offset="0.83" stop-color="#BAC1BB"/>
<stop offset="1" stop-color="#BFC7C1"/>
</linearGradient>
<linearGradient id="paint10_linear_2_60" x1="66.1251" y1="546.929" x2="98.5766" y2="599.705" gradientUnits="userSpaceOnUse">
<stop offset="0.04" stop-color="#09162B"/>
<stop offset="0.97" stop-color="#00091A"/>
</linearGradient>
<linearGradient id="paint11_linear_2_60" x1="141.011" y1="546.921" x2="175.838" y2="591.281" gradientUnits="userSpaceOnUse">
<stop offset="0.04" stop-color="#09162B"/>
<stop offset="0.97" stop-color="#00091A"/>
</linearGradient>
<linearGradient id="paint12_linear_2_60" x1="196.353" y1="546.246" x2="229.212" y2="599.728" gradientUnits="userSpaceOnUse">
<stop offset="0.04" stop-color="#09162B"/>
<stop offset="0.97" stop-color="#00091A"/>
</linearGradient>
<linearGradient id="paint13_linear_2_60" x1="268.978" y1="546.921" x2="301.476" y2="597.913" gradientUnits="userSpaceOnUse">
<stop offset="0.04" stop-color="#09162B"/>
<stop offset="0.97" stop-color="#00091A"/>
</linearGradient>
<linearGradient id="paint14_linear_2_60" x1="342.435" y1="546.929" x2="374.883" y2="599.713" gradientUnits="userSpaceOnUse">
<stop offset="0.04" stop-color="#09162B"/>
<stop offset="0.97" stop-color="#00091A"/>
</linearGradient>
<linearGradient id="paint15_linear_2_60" x1="491.429" y1="544.707" x2="510.203" y2="574.813" gradientUnits="userSpaceOnUse">
<stop offset="0.04" stop-color="#09162B"/>
<stop offset="0.97" stop-color="#00091A"/>
</linearGradient>
<linearGradient id="paint16_linear_2_60" x1="413.153" y1="545.228" x2="442.977" y2="604.118" gradientUnits="userSpaceOnUse">
<stop offset="0.04" stop-color="#09162B"/>
<stop offset="0.97" stop-color="#00091A"/>
</linearGradient>
<linearGradient id="paint17_linear_2_60" x1="0.485874" y1="546.94" x2="35.4259" y2="596.57" gradientUnits="userSpaceOnUse">
<stop offset="0.04" stop-color="#09162B"/>
<stop offset="0.97" stop-color="#00091A"/>
</linearGradient>
</defs>
</svg>
