<svg width="461" height="473" viewBox="0 0 461 473" fill="none" xmlns="http://www.w3.org/2000/svg">
<path d="M450.35 167.106L450.14 166.446C449.9 165.626 449.64 164.816 449.39 163.996L449.25 163.556C448.9 162.456 448.55 161.356 448.19 160.266L448.02 159.736C447.7 158.776 447.38 157.816 447.05 156.856L446.7 155.846H210.05C182.36 155.846 159.83 179.026 159.83 207.516V447.346C72.12 415.996 13.48 331.426 13.69 236.216C13.96 140.026 71.23 57.7659 159.76 26.0359L158.92 154.716L161.53 151.986C164.46 148.916 168.51 145.916 172.09 143.376L172.73 142.926V21.8259C186.4 17.8559 200.44 15.2159 214.52 13.9859V132.566C214.52 135.806 216.2 138.846 218.92 140.496L224.49 143.886C225.09 144.236 225.84 144.236 226.44 143.886C227.04 143.536 227.41 142.886 227.41 142.186V92.5359H413.05L411.26 90.1359C371.57 37.0659 310.46 4.36587 243.61 0.405866C177.28 -3.54413 113.3 21.4859 68.09 69.0159C34.65 103.266 12.66 145.916 4.51 192.366C-3.13 235.846 1.36002 281.056 17.5 323.116C33.14 363.866 58.83 399.136 91.8 425.126C126.73 452.666 169.13 468.886 214.52 472.096L216.32 472.246L227.41 472.766V472.666C228.45 472.676 229.49 472.696 230.53 472.696C301.92 473.156 368.2 439.476 412.3 380.226C458.18 318.586 472.41 238.916 450.35 167.096V167.106ZM227.41 13.2459C286.91 11.6659 342.58 35.0759 384.73 79.3559H227.41V13.2459ZM402.67 371.006C361.27 427.336 299.32 459.526 232.45 459.526C231.82 459.526 231.17 459.526 230.53 459.516H230.51C229.48 459.516 228.44 459.516 227.41 459.496V267.156C227.41 256.976 235.44 248.696 245.3 248.696H339.43V235.496H245.3C228.33 235.496 214.52 249.696 214.52 267.156V458.936C200.36 457.886 186.31 455.386 172.73 451.506V207.516C172.73 186.306 189.47 169.046 210.05 169.046H437.44C458.92 236.706 445.95 312.116 402.67 371.006Z" fill="url(#paint0_linear_2_42)"/>
<path d="M227.42 186.426V221.686L226.53 222.076C223.13 223.586 219.9 225.506 216.93 227.796L214.52 229.656V186.426H227.42Z" fill="url(#paint1_linear_2_42)"/>
<defs>
<linearGradient id="paint0_linear_2_42" x1="7.25776" y1="4.99229" x2="285.717" y2="559.517" gradientUnits="userSpaceOnUse">
<stop offset="0.04" stop-color="#09162B"/>
<stop offset="0.97" stop-color="#00091A"/>
</linearGradient>
<linearGradient id="paint1_linear_2_42" x1="214.699" y1="186.882" x2="242.951" y2="204.15" gradientUnits="userSpaceOnUse">
<stop offset="0.04" stop-color="#09162B"/>
<stop offset="0.97" stop-color="#00091A"/>
</linearGradient>
</defs>
</svg>
